<?xml version="1.0" encoding="UTF-8"?><svg xmlns="http://www.w3.org/2000/svg" viewBox="0 0 334.39 321.07"><defs><style>.d{fill:#fff;}</style></defs><g id="a"/><g id="b"><g id="c"><g><path class="d" d="M.03,79.26l1.36,46.04c1.65,55.71,63.45,80.29,96.13,38.24h0c6.84-8.8,15.79-15.24,25.79-18.56l50.9-16.87c24.45-8.1,40.68-34.01,39.15-62.5l-.42-7.92c-1.91-35.66-30.54-61.96-62.16-57.11L47.37,16.45C19.54,20.72-.9,47.84,.03,79.26Z"/><path class="d" d="M240.28,52.88l-.22,8.1c-1.16,43.22-26.17,81.96-64.39,99.73l-22.25,10.34c-11.8,5.49-18.52,18.51-16.33,31.68h0c2.78,16.73,18.71,27.53,34.7,23.53l101.06-25.27c36.9-9.23,61.72-44.89,58.39-83.91l-5.7-66.84c-2.42-28.36-29.88-46.95-56.07-37.95h0c-17.03,5.86-28.7,22.07-29.2,40.59Z"/><path class="d" d="M15.79,238.99l4.56,46.91c1.4,14.43,12.59,25.98,26.97,27.84l54.54,7.06c23.02,2.98,41.08-19.39,33.31-41.27l-17.58-49.5c-4-11.26-14.1-19.24-25.99-20.52l-41.52-4.47c-19.61-2.11-36.21,14.32-34.3,33.94Z"/><path class="d" d="M168.15,279.91l1.54,9.77c2.16,13.68,14.14,23.64,27.99,23.25l109.91-3.05c16.24-.45,28.57-14.79,26.59-30.92l-4.55-36.97c-2.06-16.77-18.6-27.75-34.86-23.15l-106.91,30.26c-13.43,3.8-21.89,17.03-19.72,30.82Z"/></g></g></g></svg>