<svg xmlns="http://www.w3.org/2000/svg" viewBox="0 0 25.65 25.66"><defs><style>.cls-1{fill:#fff;}</style></defs><g id="Layer_2" data-name="Layer 2"><g id="Layer_1-2" data-name="Layer 1"><path class="cls-1" d="M25.65,6.46V19.19c0,.08,0,.17,0,.26a6,6,0,0,1-.53,2,6.79,6.79,0,0,1-6.43,4.19c-3.88,0-7.76,0-11.64,0a6.63,6.63,0,0,1-3.43-.89A6.82,6.82,0,0,1,0,18.58c0-3.84,0-7.67,0-11.5A7,7,0,0,1,.14,5.64,6.84,6.84,0,0,1,5.29.21,11.65,11.65,0,0,1,6.47,0H19.19c.27,0,.55.07.81.13a6.84,6.84,0,0,1,5.44,5.16A9.25,9.25,0,0,1,25.65,6.46ZM12.82,19.84a7,7,0,1,0-7-7A7,7,0,0,0,12.82,19.84ZM20.65,6.19a1.44,1.44,0,0,0,1.43-1.43,1.44,1.44,0,1,0-2.87,0A1.44,1.44,0,0,0,20.65,6.19Z"/><path class="cls-1" d="M12.84,8.42a4.41,4.41,0,1,1-4.41,4.4A4.42,4.42,0,0,1,12.84,8.42Z"/></g></g></svg>