<svg xmlns="http://www.w3.org/2000/svg" viewBox="0 0 282.14 167.35"><defs><style>.cls-1{fill:#fff;}</style></defs><g id="Layer_2" data-name="Layer 2"><g id="Layer_1-2" data-name="Layer 1"><path class="cls-1" d="M37,128.64h.16v-.13Z"/><path class="cls-1" d="M56.34,141.33a34.8,34.8,0,0,0-5.24-3.8c-3.41-2.07-7-3.91-10.37-6-1.32-.8-3-1.21-3.63-2.91H37l-.18-.18h0l-.93-.21a.65.65,0,0,1,.91.15h0v-.09c-.08-.12,0,0,.38.2v.13c3.28-.07,6.38,1.26,9.71,1.12,6.67-.28,11-3,13.33-8.6,2.66-6.57,1.6-12.2-3.24-16.9a44.8,44.8,0,0,0-9.45-6.46A115,115,0,0,1,35.94,90.9c-4.33-3.18-8.14-6.8-9.5-12.16-7.35-.87-22.85-.59-26.44.53A19.33,19.33,0,0,1,4.89,92.54c-.08,22.13,0,44.26,0,66.39,0,.5-.09,1-.14,1.52-.59.55-1.18,1.09-1.79,1.67-.23,1.61-.62,3.24.53,4.91h25.2c1.4-1.07.72-2.67,2.06-3.33,2.13.66,4.31,1.44,6.55,2a60.89,60.89,0,0,0,7.32,1.5c6.87.87,12.87-2.12,15.32-7.8C63,152.08,61.83,146.22,56.34,141.33Zm-29.08-48c3.62,2.8,7.23,5.35,9.89,8.94a13.17,13.17,0,0,1-1.65,17.25c-2.32,2.15-3.75,2.21-8.24,0Zm10.17,63.09c-2.56,2.74-4.85,2.79-10.2,0v-27c3.33,2.3,6.49,4.15,9.25,6.46,5.85,4.88,6.21,14.92,1,20.55Z"/><path class="cls-1" d="M37.05,128.52c-.33-.25-.46-.32-.38-.2v.14Z"/><path class="cls-1" d="M86,51.59A15.08,15.08,0,0,0,58.11,63.17a14.81,14.81,0,0,0,1.18,2.27c.81,1.27,1.82,2.42,3.13,4.15C54.19,66.12,50,60.43,48.87,52.35a101.24,101.24,0,0,1,.29-29.8c1.2-8,5.24-14.1,13.41-17.71-1.17,1.64-2.07,2.75-2.8,4a14.83,14.83,0,0,0-1.27,13,15,15,0,0,0,17.11,9.68c7.08-1.51,12.41-8,12.26-15A15.41,15.41,0,0,0,74.17,1.63c-1.81-.18-3.66-.1-5.47-.34C59.25.07,50.7,3.14,42.18,6.62a12.78,12.78,0,0,0-2.84,2C31.82,14.53,28.05,22.49,27.2,31.8c-1.49,16.26,3.69,33.9,24.88,39.41,8.17,2.12,16.44,2.79,24.62.48C85.16,69.28,89.35,59.79,86,51.59Z"/><path class="cls-1" d="M120.73,160.58c.34-15,.46-29.43-.69-43.88-.87-11.11-7.2-19.75-18-22.37A36.62,36.62,0,0,0,76.38,97.5a16.25,16.25,0,0,0-6.14,5.73A14,14,0,1,0,89.8,99.32c-1.21-.81-2.56-1.43-4.07-2.27a19.3,19.3,0,0,1,6.78.06c9.95,1.44,15.14,14.89,8.73,22.09a41.46,41.46,0,0,1-6,5.92,104.17,104.17,0,0,1-12.35,7.5,44.06,44.06,0,0,0-9.12,6.11C68.62,143.55,67.35,149.39,70,156c2.23,5.55,7.13,8.59,13.9,8.56,5.25,0,10.12-1.65,15-3.48,1.43-.54,2.79-1.84,4.65-1.25.06,1.86-1.9,1.19-2.52,2.76,0,.27-.09,1.08-.09,1.9a2.86,2.86,0,0,0,1,2.54h21.5a8.2,8.2,0,0,0,.16-5.09ZM103,153.06c-5.59,2.93-9,2.1-11.89-2.73-4.19-6.89-3.48-11.91,2.63-17,2.4-2,5.07-3.72,7.63-5.55a2.06,2.06,0,0,1,2-.64C102.79,135.73,102.81,144.48,103,153.06Z"/><path class="cls-1" d="M113.77,29.86a14,14,0,0,0,6.15-16c-1.37-4.86-4.76-7.81-9.46-9.7,1.51-.73,2.82-.46,4.1-.44,5.91.1,10,2.88,12.54,8.25s1.93,10.29-2,14.76c-.87,1-1.81,1.95-2.75,2.89-3,3-6.59,5-10.2,7.11S104.63,41,101,43.35A16.49,16.49,0,0,0,93.83,52c-3.44,10.64,5,20.54,16.53,19.28a53.89,53.89,0,0,0,16.18-4.79c.49-.23.89-.21,1.16.38-.06,1.18-1.74.91-2,3,0,.61-.57,2.27.64,3.68h21.52a10.92,10.92,0,0,0,.06-4.76c-.85-1.28-2.64-.66-2.72-1.27,0-2.78-.13-4.62,0-6.43,1.12-13.48.07-26.9-1-40.32-.68-8.18-7.06-17.47-18.36-20a37.78,37.78,0,0,0-23.41,2.6,17,17,0,0,0-8.1,7.15,14.43,14.43,0,0,0,2,17.06A14.28,14.28,0,0,0,113.77,29.86Zm13.8,30c-5.55,3.21-9.2,2.28-12.29-3.16-3.92-6.91-3.15-11.61,3-16.66,2.8-2.29,5.89-4.23,9.27-6.63Z"/><path class="cls-1" d="M209.85,31.52c8,1.62,13.65-2.22,16.18-7.76a13.93,13.93,0,0,0-4.52-17.31c-1.2-.84-2.49-1.55-4.41-2.74h3.82c6,.14,10.43,2.59,13.08,8.27,2.75,5.91,1.56,10.93-2.65,15.54-.79.86-1.6,1.7-2.46,2.48-3.72,3.41-8.15,5.73-12.47,8.24-3,1.75-6.12,3.4-9,5.41s-5.6,4.69-6.76,8.41c-3.29,10.6,4.75,20.34,16,19.32,5.86-.53,11.33-2.51,16.69-4.83.49-.21.9-.22,1.11.24l-2,2.16c.29,1.63-.56,3.34,1.07,5,3.3,0,6.78.08,10.27,0s7.22.49,10.72-.38c.39-2,.63-3.57-.15-5.16L252,67.24c0-1.71-.09-3,0-4.36,1.17-14,.32-27.92-1-41.83A23.19,23.19,0,0,0,230.85.56a43.7,43.7,0,0,0-18.22,1.59,21.38,21.38,0,0,0-6.72,3.22,15.62,15.62,0,0,0-6.84,12.21C198.8,23.85,203.69,30.28,209.85,31.52Zm24.61,28.53c-6.21,2.79-9.22,1.92-12.3-3.35-3.9-6.68-3-11.82,3-16.69,2.84-2.28,5.91-4.28,9.31-6.72Z"/><path class="cls-1" d="M274.81,110.43c-11-14.48-29.87-15.58-42.38-5.5-15.52,12.52-17,38.34-2.86,53,11.94,12.36,30.09,12.53,42.26.43,7.11-7.07,10.23-15.73,10.31-28.5C282.26,124.45,279.78,117,274.81,110.43Zm-16.21,42.3c-1.21,4-2.72,7.92-7.28,9.7-2.92-.53-4.36-2.3-5.62-4.32a23,23,0,0,1-2.74-6.38,73.83,73.83,0,0,1-.13-37.43,23.38,23.38,0,0,1,3.09-7.31c3.22-4.84,7-4.79,10.07.11a33.46,33.46,0,0,1,4.19,12.16A70,70,0,0,1,258.6,152.73Z"/><path class="cls-1" d="M156.12,92.84c-.52-4.57.33-9.22-.51-13.71-6.94-.91-21.08-.67-24.51.4-.71,4.6.29,9.73-3.09,13.1-1.69,1.37-3.53.81-4.75,2.43,0,1.49-.76,3.3.72,5,3.08,1.07,6.55-.41,9.74,1v59.35l-2,1.75c-.13,1.66-.61,3.3.68,5,1.2.06,2.51.17,3.82.18h21.46c1.17-2.29,1.08-3.88.76-4.75-.85-1.54-2.37-1.24-2.36-2.59V101.39c1-1.46,2.76-.54,3.73-1.85a7.74,7.74,0,0,0-.07-4.83C158.62,93.41,156.78,94.39,156.12,92.84Z"/><path class="cls-1" d="M174,48.85a12.89,12.89,0,0,0-15.19,20.83,14.26,14.26,0,0,0,1.33.85c7.36,4.25,15.34,4.42,23.24,2.45,12.45-3.1,18-16.29,12.1-27.65a36.89,36.89,0,0,0-9.69-11.91c-3.77-3-7.52-6.05-11.2-9.17-2.42-2.06-4.75-4.3-5.84-7.35-2.37-6.62-1.59-14.11,7.27-13.72a38.36,38.36,0,0,0-3.24,3,10.49,10.49,0,0,0,.12,14.11A10.7,10.7,0,0,0,190.41,8.35a13.3,13.3,0,0,0-7.69-6.73A27.79,27.79,0,0,0,169.48.55c-7.16.94-11.9,4.86-14.53,11.37-3,7.4-1,15.65,5.22,21.43a194.51,194.51,0,0,0,15.7,13.1,24.64,24.64,0,0,1,5.46,5.08c5,6.92,2.49,14.8-6.28,18a48.35,48.35,0,0,0,2.83-4.16A13,13,0,0,0,174,48.85Z"/><path class="cls-1" d="M216.62,160.22V79c-4.41-.88-22.19-.93-27.13,0,5.42,5.21,5.14,11.72,5.08,18.26-.11,11.65,0,23.31,0,35v28.07c-2.54,1.77-2.3,4.09-1.47,6.75h25.71a5.58,5.58,0,0,0,.53-4.85C218.67,161.14,217.22,161.43,216.62,160.22Z"/><path class="cls-1" d="M186.72,160.36V78.61H160.15c0,1.36.9,1.92,1.45,2.7a16.33,16.33,0,0,1,3.15,9.77v68.83c0,1.22-1.47,1.32-1.86,2.42-.09,1.45-.52,3.09.47,4.67H189a5.91,5.91,0,0,0,.28-5.09Z"/><path class="cls-1" d="M256.15,96.61c5.3.14,10.61.09,15.92.13a14.85,14.85,0,0,0,5.35-1c3.8-1.4,5-3.87,4-7.82-2.34-8.56-8.39-11.71-16.72-8.61-5.67,2.12-10.43,5.68-14.95,9.8C249.68,95.13,250.83,96.47,256.15,96.61Z"/><path class="cls-1" d="M36.76,128.46h0l.18.18.11-.12Z"/><path class="cls-1" d="M36.72,128.41v.05h0Z"/><path class="cls-1" d="M36.76,128.46l.18.18Z"/><path class="cls-1" d="M35.81,128.25l.93.21v-.05a.65.65,0,0,0-.9-.18Z"/></g></g></svg>