<svg xmlns="http://www.w3.org/2000/svg" viewBox="0 0 26.74 26.75"><defs><style>.cls-1{fill:#fff;}</style></defs><g id="Layer_2" data-name="Layer 2"><g id="Layer_1-2" data-name="Layer 1"><path class="cls-1" d="M12.53,0h1.68a1.18,1.18,0,0,0,.2,0,12.87,12.87,0,0,1,5.81,1.85,13.22,13.22,0,0,1,6.32,9.18c.09.49.14,1,.2,1.47v1.67c0,.32-.07.64-.11,1a13.12,13.12,0,0,1-5.07,8.76,13,13,0,0,1-10,2.7,12.86,12.86,0,0,1-8-4.15A13.05,13.05,0,0,1,.12,11.57a12.8,12.8,0,0,1,3.22-7A13.17,13.17,0,0,1,11.09.2C11.57.12,12.05.07,12.53,0Zm1.19,5.75v.36q0,5,0,9.93c0,.14,0,.29,0,.44a2.26,2.26,0,0,1-4.5.08A2.23,2.23,0,0,1,11,14.1a6,6,0,0,1,1.2,0V11.54c-.55,0-1.09,0-1.6.11a4.72,4.72,0,0,0-3.79,5.6,4.79,4.79,0,0,0,5.85,3.62,4.74,4.74,0,0,0,3.62-4.68c0-1.71,0-3.42,0-5.12v-.33A6.4,6.4,0,0,0,20.06,12V9.57a3.94,3.94,0,0,1-3.88-3.82Z"/></g></g></svg>