<svg width="12" height="7" viewBox="0 0 12 7" fill="none" xmlns="http://www.w3.org/2000/svg">
<g clip-path="url(#clip0_107_77)">
<path d="M6.05418 4.55625C5.93775 4.44545 5.8644 4.3787 5.79441 4.30861C4.46773 2.99365 3.14173 1.67869 1.81639 0.36373C1.3453 -0.103515 0.720101 -0.12087 0.294101 0.306993C-0.119112 0.722174 -0.0955568 1.34762 0.3614 1.80018C1.98329 3.4115 3.60631 5.0215 5.23045 6.63016C5.72778 7.1221 6.31126 7.1241 6.80591 6.63416C8.41838 5.03752 10.0295 3.43954 11.6393 1.84022C12.1023 1.38032 12.1232 0.772235 11.6972 0.351047C11.2712 -0.0701413 10.6493 -0.0494488 10.1944 0.404446C8.87848 1.70695 7.56458 3.01012 6.25271 4.31395C6.18228 4.39119 6.11601 4.47207 6.05418 4.55625Z" fill="white"/>
</g>
<defs>
<clipPath id="clip0_107_77">
<rect width="12" height="7" fill="white" transform="translate(12 7) rotate(180)"/>
</clipPath>
</defs>
</svg>
