<svg xmlns="http://www.w3.org/2000/svg" viewBox="0 0 155.28 149.12"><defs><style>.cls-1{fill:#fff;}</style></defs><g id="Layer_2" data-name="Layer 2"><g id="Layer_1-2" data-name="Layer 1"><g id="Layer_2-2" data-name="Layer 2"><g id="Layer_1-2-2" data-name="Layer 1-2"><g id="b"><g id="c"><path class="cls-1" d="M0,36.81.64,58.19C1.44,84.06,30.14,95.48,45.31,76h0a25.43,25.43,0,0,1,12-8.62L81,59.54c11.36-3.76,18.89-15.79,18.18-29l-.19-3.68C98,10.23,84.73-2,70,.27L22,7.64C9.1,9.62-.39,22.22,0,36.81Z"/><path class="cls-1" d="M111.61,24.56l-.1,3.76C111,48.39,99.36,66.38,81.61,74.63L71.28,79.44a13.71,13.71,0,0,0-7.59,14.71h0a13.22,13.22,0,0,0,15,11.14,9.9,9.9,0,0,0,1.11-.21l46.93-11.74c17.14-4.29,28.66-20.85,27.12-39l-2.65-31c-1.12-13.17-13.88-21.8-26-17.62h0A20.41,20.41,0,0,0,111.61,24.56Z"/><path class="cls-1" d="M7.36,111l2.12,21.78A14.43,14.43,0,0,0,22,145.7L47.33,149A14.43,14.43,0,0,0,62.8,129.84l-8.16-23a14.46,14.46,0,0,0-12.07-9.53L23.28,95.22A14.49,14.49,0,0,0,7.35,111Z"/><path class="cls-1" d="M78.12,130l.71,4.54a12.8,12.8,0,0,0,13,10.8l51-1.42a12.79,12.79,0,0,0,12.44-13.15c0-.4,0-.81-.09-1.21l-2.11-17.17a12.8,12.8,0,0,0-14.27-11.14,12.57,12.57,0,0,0-1.92.39l-49.65,14A12.8,12.8,0,0,0,78.11,130Z"/></g></g></g></g></g></g></svg>