<svg xmlns="http://www.w3.org/2000/svg" viewBox="0 0 424 28.55"><g id="Layer_2" data-name="Layer 2"><g id="Layer_1-2" data-name="Layer 1"><path d="M424,4.76l-.76.39c-2.3-1.6-6.44-1.81-10.93,0-1.43-3.29-1.09,2.25-5.1-.09-5.46-.11-5.11-.76-3.92,3.64.87.12-.62,2-1.82,2.66-7.47-3.18-8.72-1-8.35.3,2.14,5.83-4.35-2.09-8.37,0-4.72.4-6.78-.7-10.05.1-4.07-2.31-6-.87-8.9-3.4-.45,2.22-1-.46-1.62-3-1-.82-3.05-.24-4.07-.15-4,4.65-5.41,4.44-9.09,5.92-3.25,3.76-6.62,1.31-9.83,1-3.05-.71-4.54,1-7.85,2-2.76-1.92-5.5,3.19-8.26,0-3.77,4.83-8.61,9.08-12.19-.22-1.77,2.52-2.75-2.09-4.69-2.41-1.4-1-3.18-2.77-4.62.09-2.44,3-4.88,4.94-7.32,0-3.78-.92-7.61-2.46-11.37,0-3.5,1.48-6.25,1.48-9.65,2.6-3.66-2.23-7.66,2.16-11.13-1.29-3.49-.72-7.52,3.47-10.39-2.45-2.44-4.58-4.57-3.56-7.44-6.18-1.48-3.88-3.1-2.26-4.6-1.48-1.86-4.34-3.08.09-5.05-1.57a14.48,14.48,0,0,0-8.32-.87c-.52,0-1.34-.74-2.44,2.43-1.14-1.84-2.28.19-3.41,1-2.81-1.13-5.5,1-8.28.15-3.91-1.65-7.58,4.82-11.68,1.3-3.9,1.08-7.81.37-11.71,0-3.66.28-7.5,3.58-11.11,0-2.67,7.61-4.88-5.51-7.43-2.68-4.7-5.37-10.31,9.61-14.87,1.07-3,2.38-6,.93-9,.1-3,2.35-5.93-4.78-8.94-1.17-2.32-3.81-4.76-1.66-7.09,0-2.52-.64-8.39,3.69-9,5.23,1.23,3.76,4.77,8.24,5.32,7.9-4.69,5.93-9.92-1.14-14.52.45-2.67,2.65-5.7,3.82-8.73,3.39-2.92-2.67-5.86-1.26-8.87,2.25C94,13.42,92,27.47,89.66,19.52c-2.22,5.12-5.43-5.4-7.9-1.94-1.63.7-2-4.53-3.38,2-2.51,5.27-4,5.6-5.95-.55-3.89,2.46-5,8-8.39-.23-2.44,4.59-3.62,5.16-6-1.08-3.53-5.26-6.83,7-9.15-.74-4.88-9.3-7.64.77-8.54-5.66-4.44-1.87-1.4-.74-6.5-.13-1-4-5.33-3-8.29-2.6-1,3.84-5.11,3.25-7.7-1C16.16,8,10.5,6.76,10,7.66c-6.56,1.54-5.09,4.95-6,5-.81,2.12-1.44.89-4.06,1V28.55H424Z"/></g></g></svg>