<svg xmlns="http://www.w3.org/2000/svg" viewBox="0 0 1425 52.52"><g id="Layer_2" data-name="Layer 2"><g id="Layer_1-2" data-name="Layer 1"><path d="M1425,9.22l-2.57.74c-7.7-3.09-21.63-3.5-36.71,0-4.8-6.36-3.68,4.36-17.15-.17-18.35-.2-17.18-1.46-13.19,7.05,2.95.23-2.08,3.79-6.09,5.16-25.1-6.16-29.31-1.94-28.08.58,7.21,11.29-14.61-4-28.13,0-15.87.77-22.78-1.35-33.79.2-13.65-4.47-20.1-1.69-29.88-6.6-1.53,4.31-3.38-.88-5.46-5.9-3.28-1.58-10.24-.46-13.66-.29-13.44,9-18.22,8.6-30.56,11.47-10.93,7.28-22.26,2.52-33,1.89-10.24-1.37-15.24,1.87-26.38,3.84-9.26-3.72-18.49,6.17-27.75,0-12.68,9.35-28.93,17.58-41-.43-6,4.88-9.26-4-15.76-4.67-4.7-1.89-10.68-5.36-15.54.17-8.2,5.74-16.39,9.58-24.58,0-12.73-1.77-25.6-4.76-38.24,0-11.75,2.87-21,2.87-32.42,5-12.3-4.33-25.73,4.18-37.42-2.5-11.72-1.4-25.27,6.71-34.91-4.75-8.19-8.86-15.35-6.89-25-12-4.94-7.51-10.4-4.39-15.43-2.87-6.25-8.4-10.38.17-17-3A82.77,82.77,0,0,0,767.3.5c-1.75,0-4.48-1.43-8.19,4.7-3.82-3.55-7.65.38-11.47,2-9.42-2.18-18.47,2-27.81.29C706.7,4.29,694.35,16.82,680.56,10c-13.11,2.09-26.25.72-39.36,0-12.29.55-25.18,6.94-37.34,0-9,14.74-16.39-10.66-25-5.19-15.79-10.41-34.63,18.61-50,2.07-10.25,4.61-20.27,1.8-30.24.2-10,4.56-19.94-9.26-30-2.27-7.81-7.37-16-3.21-23.82,0-8.49-1.23-28.21,7.14-30.29,10.12,4.12,7.29,16,16,17.86,15.31-15.76,11.47-33.32-2.2-48.78.86a50.59,50.59,0,0,1-29.33,6.57c-9.84-5.16-19.72-2.44-29.83,4.36-8.38-16-15.32,11.18-23.13-4.22-7.46,9.92-18.25-10.46-26.55-3.75-5.46,1.34-6.61-8.78-11.34,3.87-8.44,10.2-13.49,10.84-20-1.06-13,4.76-16.79,15.56-28.18-.46-8.2,8.89-12.16,10-20.11-2.1-11.85-10.17-22.94,13.57-30.75-1.43-16.39-18-25.67,1.49-28.68-10.95-14.94-3.61-4.72-1.43-21.85-.26-3.28-7.83-17.92-5.73-27.89-5-3.46,7.43-17.15,6.28-25.86-2-5.79.83-24.8-1.52-26.33.23-22.07,3-17.13,9.57-20.1,9.6-2.73,4.1-4.84,1.72-13.66,2v26.1H1425Z"/></g></g></svg>