<svg width="17" height="18" viewBox="0 0 17 18" fill="none" xmlns="http://www.w3.org/2000/svg">
<path d="M13.5811 8.00408L11.5033 5.93668C11.2389 5.67355 11.1633 5.30706 11.2672 4.97815C11.6167 3.92566 11.8056 2.79798 11.8056 1.62332C11.8056 1.10647 12.2306 0.683594 12.75 0.683594H16.0556C16.575 0.683594 17 1.10647 17 1.62332C17 10.4474 9.81278 17.5987 0.944444 17.5987C0.425 17.5987 0 17.1758 0 16.659V13.3793C0 12.8625 0.425 12.4396 0.944444 12.4396C2.11556 12.4396 3.25833 12.2517 4.31611 11.904C4.64667 11.7912 5.02444 11.8758 5.27944 12.1295L7.35722 14.1969C10.03 12.8343 12.2211 10.6635 13.5811 8.00408Z" fill="white"/>
</svg>
