<svg width="42" height="44" viewBox="0 0 42 44" fill="none" xmlns="http://www.w3.org/2000/svg">
<path d="M0.982708 43.1535L3.81228 32.1C2.06291 28.8556 1.14522 25.1814 1.15478 21.4252C1.15478 9.65536 10.1023 0.0859375 21.086 0.0859375C26.4201 0.0859375 31.4292 2.30686 35.1861 6.33932C38.9524 10.3718 41.0268 15.7348 41.0173 21.4355C41.0173 33.2054 32.0697 42.7748 21.0765 42.7748H21.0669C17.7307 42.7748 14.4518 41.8741 11.5362 40.1752L0.982708 43.1535ZM12.0429 36.3167L12.6451 36.7056C15.1879 38.3227 18.1035 39.1722 21.0765 39.1824H21.086C30.2152 39.1824 37.6524 31.2301 37.6524 21.4457C37.6524 16.7071 35.9317 12.255 32.8058 8.89799C29.6799 5.54102 25.512 3.69878 21.086 3.69878C11.9568 3.68854 4.51967 11.6409 4.51967 21.4252C4.51967 24.772 5.38957 28.0368 7.05289 30.8616L7.44483 31.5371L5.77194 38.0771L12.0429 36.3167Z" fill="white"/>
<path d="M1.68058 42.4063L4.41455 31.7315C2.72255 28.6099 1.83353 25.0585 1.83353 21.4354C1.84309 10.0749 10.4752 0.833008 21.0861 0.833008C26.2385 0.833008 31.066 2.98229 34.6986 6.87147C38.3311 10.7606 40.329 15.9394 40.329 21.4456C40.329 32.8061 31.6874 42.0481 21.0861 42.0481H21.0765C17.855 42.0481 14.6908 41.1781 11.8804 39.5406L1.68058 42.4063Z" fill="url(#paint0_linear_78_18)"/>
<path d="M0.982708 43.1535L3.81228 32.1C2.06291 28.8556 1.14522 25.1814 1.15478 21.4252C1.15478 9.65536 10.1023 0.0859375 21.086 0.0859375C26.4201 0.0859375 31.4292 2.30686 35.1861 6.33932C38.9524 10.3718 41.0268 15.7348 41.0173 21.4355C41.0173 33.2054 32.0697 42.7748 21.0765 42.7748H21.0669C17.7307 42.7748 14.4518 41.8741 11.5362 40.1752L0.982708 43.1535ZM12.0429 36.3167L12.6451 36.7056C15.1879 38.3227 18.1035 39.1722 21.0765 39.1824H21.086C30.2152 39.1824 37.6524 31.2301 37.6524 21.4457C37.6524 16.7071 35.9317 12.255 32.8058 8.89799C29.6799 5.54102 25.512 3.69878 21.086 3.69878C11.9568 3.68854 4.51967 11.6409 4.51967 21.4252C4.51967 24.772 5.38957 28.0368 7.05289 30.8616L7.44483 31.5371L5.77194 38.0771L12.0429 36.3167Z" fill="url(#paint1_linear_78_18)"/>
<path fill-rule="evenodd" clip-rule="evenodd" d="M16.1055 12.5007C15.7326 11.6103 15.3407 11.5898 14.987 11.5796C14.7002 11.5693 14.3656 11.5693 14.0311 11.5693C13.6965 11.5693 13.1612 11.7024 12.7023 12.2346C12.2435 12.7668 10.9625 14.0564 10.9625 16.6867C10.9625 19.3068 12.7501 21.845 12.9987 22.2032C13.2472 22.5614 16.4496 28.1188 21.5065 30.2579C25.7126 32.0387 26.5729 31.6805 27.4811 31.5884C28.3892 31.4962 30.4254 30.2988 30.846 29.0502C31.257 27.8015 31.257 26.7371 31.1327 26.512C31.0085 26.2868 30.6739 26.1537 30.1768 25.8876C29.6797 25.6215 27.2325 24.332 26.7737 24.1478C26.3148 23.9738 25.9803 23.8817 25.6552 24.4139C25.3207 24.9461 24.3647 26.1435 24.0779 26.5017C23.7912 26.8599 23.4948 26.9009 22.9977 26.6348C22.5007 26.3687 20.8947 25.8058 18.9924 23.984C17.5107 22.5716 16.5069 20.8215 16.2202 20.2893C15.9334 19.7571 16.1915 19.4705 16.44 19.2044C16.6599 18.969 16.9371 18.5801 17.1857 18.273C17.4342 17.966 17.5202 17.7408 17.6827 17.3826C17.8453 17.0244 17.7688 16.7174 17.6445 16.4513C17.5202 16.1954 16.5452 13.5549 16.1055 12.5007Z" fill="white"/>
<defs>
<linearGradient id="paint0_linear_78_18" x1="21.0038" y1="42.4042" x2="21.0038" y2="0.831553" gradientUnits="userSpaceOnUse">
<stop stop-color="#20B038"/>
<stop offset="1" stop-color="#60D66A"/>
</linearGradient>
<linearGradient id="paint1_linear_78_18" x1="21.0039" y1="43.1494" x2="21.0039" y2="0.0859375" gradientUnits="userSpaceOnUse">
<stop stop-color="#F9F9F9"/>
<stop offset="1" stop-color="white"/>
</linearGradient>
</defs>
</svg>
