<svg xmlns="http://www.w3.org/2000/svg" viewBox="0 0 635.35 637.91"><g id="Layer_2" data-name="Layer 2"><g id="Layer_1-2" data-name="Layer 1"><path d="M0,637.91C4.88,620,9.51,603,14.15,586c9.62-35.2,19.36-70.37,28.71-105.65a16.44,16.44,0,0,0-1.16-11.06C-44.23,312.84,16,116,174.79,34.9c175.5-89.62,388.83.5,446.65,188.67,51,166.11-42.82,344-209.09,395-82.57,25.31-162.7,17.38-239.85-21.44A16.35,16.35,0,0,0,162,596C110.36,609.28,58.8,622.85,7.21,636.34,5.15,636.88,3,637.25,0,637.91Zm75.84-74.76c31.72-8.32,62.12-16.17,92.44-24.37,5.15-1.39,9.08-.69,13.62,2,58.53,35.09,121.61,46.66,188.44,33.36C512.05,546,603.89,408.92,577.19,266.69,550.66,125.38,412.05,31,270.51,57.88c-177,33.61-269.2,231-180.18,387.41,9.22,16.2,11.1,29.52,5.35,46.59C88,514.83,82.55,538.58,75.84,563.15Z"/><path d="M216.74,170.69c13.37-3.32,19.94,4.74,24.63,16.88,7.16,18.56,15,36.87,22.87,55.15,2.74,6.36,2.5,12-1.62,17.44-6.25,8.32-12.24,16.85-18.86,24.87-4.46,5.41-4.86,10.24-1.28,16.26,25.81,43.35,61.83,74.72,108.81,93.43,6.46,2.57,11.56,1.4,15.89-4,7.75-9.68,15.67-19.22,23.34-29,5.64-7.16,8.9-8.94,17-5.24Q441,371.79,473.9,388.36c2.71,1.36,5.14,6.36,5.09,9.63-.5,33.7-10.42,49.85-46.32,64.95-20.37,8.56-41.52,6.55-62.53.7-76.22-21.23-132.38-69.15-177.31-132.31-14-19.62-26.54-39.85-31.89-63.64-7.7-34.24.72-63.92,25.89-88.7C195,170.94,204.91,169.34,216.74,170.69Z"/></g></g></svg>